<svg width="240" height="160" viewBox="0 0 240 160" fill="none" xmlns="http://www.w3.org/2000/svg">
<g filter="url(#filter0_d_40_113)">
<rect x="8" y="8" width="224" height="144" rx="10" fill="white"/>
</g>
<path d="M34.4205 55H29.2642V40.4545H34.4631C35.9261 40.4545 37.1856 40.7457 38.2415 41.3281C39.2973 41.9058 40.1094 42.7367 40.6776 43.821C41.2505 44.9053 41.5369 46.2027 41.5369 47.7131C41.5369 49.2282 41.2505 50.5303 40.6776 51.6193C40.1094 52.7083 39.2926 53.544 38.2273 54.1264C37.1667 54.7088 35.8977 55 34.4205 55ZM32.3395 52.3651H34.2926C35.2017 52.3651 35.9664 52.2041 36.5866 51.8821C37.2116 51.5554 37.6804 51.0511 37.9929 50.3693C38.3101 49.6828 38.4688 48.7973 38.4688 47.7131C38.4688 46.6383 38.3101 45.7599 37.9929 45.0781C37.6804 44.3963 37.214 43.8944 36.5938 43.5724C35.9735 43.2505 35.2088 43.0895 34.2997 43.0895H32.3395V52.3651ZM48.7298 55.2131C47.6076 55.2131 46.6417 54.9858 45.832 54.5312C45.0271 54.072 44.4068 53.4233 43.9712 52.5852C43.5356 51.7424 43.3178 50.7457 43.3178 49.5952C43.3178 48.473 43.5356 47.4882 43.9712 46.6406C44.4068 45.7931 45.02 45.1326 45.8107 44.6591C46.6062 44.1856 47.5389 43.9489 48.609 43.9489C49.3287 43.9489 49.9987 44.0649 50.619 44.2969C51.244 44.5241 51.7885 44.8674 52.2525 45.3267C52.7212 45.786 53.0858 46.3636 53.3462 47.0597C53.6067 47.7509 53.7369 48.5606 53.7369 49.4886V50.3196H44.5252V48.4446H50.8888C50.8888 48.009 50.7942 47.6231 50.6048 47.2869C50.4154 46.9508 50.1526 46.688 49.8164 46.4986C49.485 46.3045 49.0991 46.2074 48.6587 46.2074C48.1995 46.2074 47.7923 46.3139 47.4371 46.527C47.0868 46.7353 46.8121 47.017 46.6133 47.3722C46.4144 47.7225 46.3126 48.1132 46.3079 48.544V50.3267C46.3079 50.8665 46.4073 51.3329 46.6062 51.7259C46.8098 52.1188 47.0962 52.4219 47.4656 52.6349C47.8349 52.848 48.2728 52.9545 48.7795 52.9545C49.1156 52.9545 49.4234 52.9072 49.7028 52.8125C49.9821 52.7178 50.2212 52.5758 50.4201 52.3864C50.619 52.197 50.7705 51.965 50.8746 51.6903L53.6729 51.875C53.5309 52.5473 53.2397 53.1345 52.7994 53.6364C52.3638 54.1335 51.8003 54.5218 51.109 54.8011C50.4225 55.0758 49.6294 55.2131 48.7298 55.2131ZM64.788 47.2017L62.0181 47.3722C61.9708 47.1354 61.869 46.9223 61.7127 46.733C61.5565 46.5388 61.3505 46.3849 61.0948 46.2713C60.8439 46.1529 60.5432 46.0938 60.1928 46.0938C59.7241 46.0938 59.3287 46.1932 59.0067 46.392C58.6848 46.5862 58.5238 46.8466 58.5238 47.1733C58.5238 47.4337 58.628 47.6539 58.8363 47.8338C59.0446 48.0137 59.4021 48.1581 59.9087 48.267L61.8832 48.6648C62.9438 48.8826 63.7345 49.233 64.2553 49.7159C64.7762 50.1989 65.0366 50.8333 65.0366 51.6193C65.0366 52.3343 64.8259 52.9616 64.4045 53.5014C63.9878 54.0412 63.4149 54.4626 62.6857 54.7656C61.9613 55.0639 61.1256 55.2131 60.1786 55.2131C58.7345 55.2131 57.5839 54.9124 56.7269 54.3111C55.8746 53.705 55.3751 52.8812 55.2283 51.8395L58.2042 51.6832C58.2942 52.1236 58.512 52.4598 58.8576 52.6918C59.2032 52.919 59.646 53.0327 60.1857 53.0327C60.716 53.0327 61.1422 52.9309 61.4641 52.7273C61.7908 52.5189 61.9566 52.2514 61.9613 51.9247C61.9566 51.6501 61.8406 51.4252 61.6133 51.25C61.386 51.0701 61.0356 50.9328 60.5621 50.8381L58.6729 50.4616C57.6076 50.2486 56.8145 49.8793 56.2937 49.3537C55.7776 48.8281 55.5195 48.1581 55.5195 47.3438C55.5195 46.643 55.7089 46.0393 56.0877 45.5327C56.4712 45.026 57.0086 44.6354 57.6999 44.3608C58.396 44.0862 59.2103 43.9489 60.1431 43.9489C61.521 43.9489 62.6052 44.2401 63.396 44.8224C64.1914 45.4048 64.6554 46.1979 64.788 47.2017ZM66.9418 55V44.0909H69.9673V55H66.9418ZM68.4616 42.6847C68.0118 42.6847 67.6259 42.5355 67.304 42.2372C66.9867 41.9342 66.8281 41.572 66.8281 41.1506C66.8281 40.7339 66.9867 40.3764 67.304 40.0781C67.6259 39.7751 68.0118 39.6236 68.4616 39.6236C68.9115 39.6236 69.295 39.7751 69.6122 40.0781C69.9342 40.3764 70.0952 40.7339 70.0952 41.1506C70.0952 41.572 69.9342 41.9342 69.6122 42.2372C69.295 42.5355 68.9115 42.6847 68.4616 42.6847ZM72.391 55V44.0909H75.3242V45.9943H75.4379C75.6367 45.3172 75.9705 44.8059 76.4393 44.4602C76.908 44.1098 77.4478 43.9347 78.0586 43.9347C78.2101 43.9347 78.3735 43.9441 78.5487 43.9631C78.7238 43.982 78.8777 44.008 79.0103 44.0412V46.7259C78.8683 46.6832 78.6718 46.6454 78.4208 46.6122C78.1699 46.5791 77.9402 46.5625 77.7319 46.5625C77.2868 46.5625 76.8891 46.6596 76.5387 46.8537C76.1931 47.0431 75.9184 47.3082 75.7148 47.6491C75.516 47.9901 75.4165 48.383 75.4165 48.8281V55H72.391ZM85.0384 55.2131C83.9162 55.2131 82.9503 54.9858 82.1406 54.5312C81.3357 54.072 80.7154 53.4233 80.2798 52.5852C79.8442 51.7424 79.6264 50.7457 79.6264 49.5952C79.6264 48.473 79.8442 47.4882 80.2798 46.6406C80.7154 45.7931 81.3286 45.1326 82.1193 44.6591C82.9148 44.1856 83.8475 43.9489 84.9176 43.9489C85.6373 43.9489 86.3073 44.0649 86.9276 44.2969C87.5526 44.5241 88.0971 44.8674 88.5611 45.3267C89.0298 45.786 89.3944 46.3636 89.6548 47.0597C89.9152 47.7509 90.0455 48.5606 90.0455 49.4886V50.3196H80.8338V48.4446H87.1974C87.1974 48.009 87.1027 47.6231 86.9134 47.2869C86.724 46.9508 86.4612 46.688 86.125 46.4986C85.7936 46.3045 85.4077 46.2074 84.9673 46.2074C84.508 46.2074 84.1009 46.3139 83.7457 46.527C83.3954 46.7353 83.1207 47.017 82.9219 47.3722C82.723 47.7225 82.6212 48.1132 82.6165 48.544V50.3267C82.6165 50.8665 82.7159 51.3329 82.9148 51.7259C83.1184 52.1188 83.4048 52.4219 83.7741 52.6349C84.1435 52.848 84.5814 52.9545 85.0881 52.9545C85.4242 52.9545 85.732 52.9072 86.0114 52.8125C86.2907 52.7178 86.5298 52.5758 86.7287 52.3864C86.9276 52.197 87.0791 51.965 87.1832 51.6903L89.9815 51.875C89.8395 52.5473 89.5483 53.1345 89.108 53.6364C88.6723 54.1335 88.1089 54.5218 87.4176 54.8011C86.7311 55.0758 85.938 55.2131 85.0384 55.2131ZM96.0398 55.1776C95.2112 55.1776 94.4607 54.9645 93.7884 54.5384C93.1207 54.1075 92.5904 53.4754 92.1974 52.642C91.8092 51.804 91.6151 50.7765 91.6151 49.5597C91.6151 48.3097 91.8163 47.2704 92.2188 46.4418C92.6212 45.6084 93.1563 44.9858 93.8239 44.5739C94.4962 44.1572 95.2325 43.9489 96.0327 43.9489C96.6435 43.9489 97.1525 44.053 97.5597 44.2614C97.9716 44.465 98.303 44.7206 98.554 45.0284C98.8097 45.3314 99.0038 45.6297 99.1364 45.9233H99.2287V40.4545H102.247V55H99.2642V53.2528H99.1364C98.9943 53.5559 98.7931 53.8565 98.5327 54.1548C98.277 54.4484 97.9432 54.6922 97.5312 54.8864C97.1241 55.0805 96.6269 55.1776 96.0398 55.1776ZM96.9986 52.7699C97.4863 52.7699 97.8982 52.6373 98.2344 52.3722C98.5753 52.1023 98.8357 51.7259 99.0156 51.2429C99.2003 50.7599 99.2926 50.1941 99.2926 49.5455C99.2926 48.8968 99.2027 48.3333 99.0227 47.8551C98.8428 47.3769 98.5824 47.0076 98.2415 46.7472C97.9006 46.4867 97.4863 46.3565 96.9986 46.3565C96.5014 46.3565 96.0824 46.4915 95.7415 46.7614C95.4006 47.0312 95.1425 47.4053 94.9673 47.8835C94.7921 48.3617 94.7045 48.9157 94.7045 49.5455C94.7045 50.1799 94.7921 50.741 94.9673 51.2287C95.1473 51.7116 95.4053 52.0904 95.7415 52.3651C96.0824 52.6349 96.5014 52.7699 96.9986 52.7699ZM117.311 44.6378C117.254 44.0649 117.01 43.6198 116.58 43.3026C116.149 42.9853 115.564 42.8267 114.825 42.8267C114.323 42.8267 113.9 42.8977 113.554 43.0398C113.208 43.1771 112.943 43.3688 112.759 43.6151C112.579 43.8613 112.489 44.1406 112.489 44.4531C112.479 44.7135 112.534 44.9408 112.652 45.1349C112.775 45.3291 112.943 45.4972 113.156 45.6392C113.369 45.7765 113.616 45.8973 113.895 46.0014C114.174 46.1009 114.473 46.1861 114.79 46.2571L116.097 46.5696C116.731 46.7116 117.313 46.901 117.844 47.1378C118.374 47.3745 118.833 47.6657 119.222 48.0114C119.61 48.357 119.911 48.7642 120.124 49.233C120.341 49.7017 120.453 50.2391 120.457 50.8452C120.453 51.7353 120.225 52.5071 119.776 53.1605C119.33 53.8092 118.687 54.3134 117.844 54.6733C117.006 55.0284 115.995 55.206 114.811 55.206C113.637 55.206 112.614 55.026 111.743 54.6662C110.876 54.3063 110.199 53.7737 109.712 53.0682C109.229 52.358 108.975 51.4796 108.952 50.4332H111.928C111.961 50.9209 112.1 51.3281 112.347 51.6548C112.598 51.9768 112.931 52.2206 113.348 52.3864C113.769 52.5473 114.245 52.6278 114.776 52.6278C115.296 52.6278 115.749 52.5521 116.132 52.4006C116.52 52.2491 116.821 52.0384 117.034 51.7685C117.247 51.4986 117.354 51.1884 117.354 50.8381C117.354 50.5114 117.257 50.2367 117.062 50.0142C116.873 49.7917 116.594 49.6023 116.224 49.446C115.86 49.2898 115.412 49.1477 114.882 49.0199L113.298 48.6222C112.072 48.3239 111.104 47.8575 110.393 47.223C109.683 46.5885 109.33 45.7339 109.335 44.6591C109.33 43.7784 109.565 43.009 110.038 42.3509C110.517 41.6927 111.172 41.179 112.006 40.8097C112.839 40.4403 113.786 40.2557 114.847 40.2557C115.926 40.2557 116.868 40.4403 117.673 40.8097C118.483 41.179 119.113 41.6927 119.562 42.3509C120.012 43.009 120.244 43.7713 120.259 44.6378H117.311ZM125.58 55.206C124.884 55.206 124.264 55.0852 123.719 54.8438C123.175 54.5975 122.744 54.2353 122.426 53.7571C122.114 53.2741 121.958 52.6728 121.958 51.9531C121.958 51.3471 122.069 50.8381 122.292 50.4261C122.514 50.0142 122.817 49.6828 123.201 49.4318C123.584 49.1809 124.02 48.9915 124.507 48.8636C125 48.7358 125.516 48.6458 126.056 48.5938C126.69 48.5275 127.202 48.4659 127.59 48.4091C127.978 48.3475 128.26 48.2576 128.435 48.1392C128.61 48.0208 128.698 47.8456 128.698 47.6136V47.571C128.698 47.1212 128.556 46.7732 128.272 46.527C127.992 46.2808 127.595 46.1577 127.078 46.1577C126.534 46.1577 126.101 46.2784 125.779 46.5199C125.457 46.7566 125.244 47.0549 125.14 47.4148L122.341 47.1875C122.483 46.5246 122.763 45.9517 123.179 45.4688C123.596 44.9811 124.133 44.607 124.792 44.3466C125.454 44.0814 126.221 43.9489 127.093 43.9489C127.699 43.9489 128.279 44.0199 128.833 44.1619C129.391 44.304 129.886 44.5241 130.317 44.8224C130.753 45.1207 131.096 45.5043 131.347 45.973C131.598 46.437 131.723 46.9934 131.723 47.642V55H128.854V53.4872H128.769C128.594 53.8281 128.359 54.1288 128.066 54.3892C127.772 54.6449 127.419 54.8461 127.007 54.9929C126.596 55.1349 126.12 55.206 125.58 55.206ZM126.446 53.1179C126.891 53.1179 127.284 53.0303 127.625 52.8551C127.966 52.6752 128.234 52.4337 128.428 52.1307C128.622 51.8277 128.719 51.4844 128.719 51.1009V49.9432C128.624 50.0047 128.494 50.0616 128.328 50.1136C128.167 50.161 127.985 50.206 127.782 50.2486C127.578 50.2865 127.374 50.322 127.171 50.3551C126.967 50.3835 126.783 50.4096 126.617 50.4332C126.262 50.4853 125.952 50.5682 125.686 50.6818C125.421 50.7955 125.215 50.9493 125.069 51.1435C124.922 51.3329 124.848 51.5696 124.848 51.8537C124.848 52.2656 124.998 52.5805 125.296 52.7983C125.599 53.0114 125.982 53.1179 126.446 53.1179ZM137.096 40.4545V55H134.071V40.4545H137.096ZM142.631 55.206C141.935 55.206 141.314 55.0852 140.77 54.8438C140.225 54.5975 139.795 54.2353 139.477 53.7571C139.165 53.2741 139.009 52.6728 139.009 51.9531C139.009 51.3471 139.12 50.8381 139.342 50.4261C139.565 50.0142 139.868 49.6828 140.251 49.4318C140.635 49.1809 141.071 48.9915 141.558 48.8636C142.051 48.7358 142.567 48.6458 143.107 48.5938C143.741 48.5275 144.252 48.4659 144.641 48.4091C145.029 48.3475 145.311 48.2576 145.486 48.1392C145.661 48.0208 145.749 47.8456 145.749 47.6136V47.571C145.749 47.1212 145.607 46.7732 145.322 46.527C145.043 46.2808 144.645 46.1577 144.129 46.1577C143.585 46.1577 143.152 46.2784 142.83 46.5199C142.508 46.7566 142.295 47.0549 142.19 47.4148L139.392 47.1875C139.534 46.5246 139.813 45.9517 140.23 45.4688C140.647 44.9811 141.184 44.607 141.842 44.3466C142.505 44.0814 143.272 43.9489 144.143 43.9489C144.75 43.9489 145.33 44.0199 145.884 44.1619C146.442 44.304 146.937 44.5241 147.368 44.8224C147.804 45.1207 148.147 45.5043 148.398 45.973C148.649 46.437 148.774 46.9934 148.774 47.642V55H145.905V53.4872H145.82C145.644 53.8281 145.41 54.1288 145.116 54.3892C144.823 54.6449 144.47 54.8461 144.058 54.9929C143.646 55.1349 143.17 55.206 142.631 55.206ZM143.497 53.1179C143.942 53.1179 144.335 53.0303 144.676 52.8551C145.017 52.6752 145.285 52.4337 145.479 52.1307C145.673 51.8277 145.77 51.4844 145.77 51.1009V49.9432C145.675 50.0047 145.545 50.0616 145.379 50.1136C145.218 50.161 145.036 50.206 144.832 50.2486C144.629 50.2865 144.425 50.322 144.222 50.3551C144.018 50.3835 143.833 50.4096 143.668 50.4332C143.313 50.4853 143.002 50.5682 142.737 50.6818C142.472 50.7955 142.266 50.9493 142.119 51.1435C141.973 51.3329 141.899 51.5696 141.899 51.8537C141.899 52.2656 142.048 52.5805 142.347 52.7983C142.65 53.0114 143.033 53.1179 143.497 53.1179ZM151.121 55V44.0909H154.055V45.9943H154.168C154.367 45.3172 154.701 44.8059 155.17 44.4602C155.638 44.1098 156.178 43.9347 156.789 43.9347C156.941 43.9347 157.104 43.9441 157.279 43.9631C157.454 43.982 157.608 44.008 157.741 44.0412V46.7259C157.599 46.6832 157.402 46.6454 157.151 46.6122C156.9 46.5791 156.671 46.5625 156.462 46.5625C156.017 46.5625 155.62 46.6596 155.269 46.8537C154.924 47.0431 154.649 47.3082 154.445 47.6491C154.246 47.9901 154.147 48.383 154.147 48.8281V55H151.121ZM161.505 59.0909C161.121 59.0909 160.762 59.0601 160.425 58.9986C160.094 58.9418 159.819 58.8684 159.602 58.7784L160.283 56.5199C160.638 56.6288 160.958 56.688 161.242 56.6974C161.531 56.7069 161.78 56.6406 161.988 56.4986C162.201 56.3565 162.374 56.1151 162.506 55.7741L162.684 55.3125L158.771 44.0909H161.952L164.211 52.1023H164.325L166.604 44.0909H169.808L165.567 56.179C165.364 56.7661 165.087 57.2775 164.737 57.7131C164.391 58.1534 163.953 58.492 163.423 58.7287C162.892 58.9702 162.253 59.0909 161.505 59.0909Z" fill="black"/>
<rect x="28.25" y="64.25" width="165.5" height="21.5" rx="1.75" fill="white" stroke="black" stroke-width="0.5"/>
<rect x="104.49" y="69.0769" width="83" height="11.8462" rx="5" fill="#EFEDED"/>
<path d="M37.4444 70H38.5556V80H37.4444V70Z" fill="#474747"/>
<path d="M33 74.4444H43V75.5556H33V74.4444Z" fill="#474747"/>
<rect x="26" y="95" width="94" height="25" rx="5" fill="#DEDEDE"/>
<path d="M57.4851 114.364V100.727H58.3587V114.364H57.4851ZM60.0046 105.09C59.9549 104.625 59.7454 104.262 59.3761 104.003C59.0103 103.744 58.5344 103.614 57.9485 103.614C57.5366 103.614 57.1832 103.676 56.8885 103.801C56.5938 103.925 56.3683 104.094 56.212 104.307C56.0558 104.52 55.9759 104.763 55.9723 105.037C55.9723 105.264 56.0238 105.461 56.1268 105.628C56.2333 105.795 56.3771 105.937 56.5582 106.054C56.7393 106.168 56.94 106.263 57.1602 106.342C57.3803 106.42 57.6023 106.485 57.826 106.539L58.8487 106.794C59.2607 106.89 59.6566 107.02 60.0366 107.183C60.4201 107.347 60.7628 107.553 61.0646 107.801C61.37 108.05 61.6115 108.35 61.7891 108.701C61.9666 109.053 62.0554 109.465 62.0554 109.937C62.0554 110.576 61.892 111.139 61.5653 111.626C61.2386 112.109 60.7663 112.487 60.1484 112.76C59.5341 113.03 58.7901 113.165 57.9165 113.165C57.0678 113.165 56.331 113.034 55.706 112.771C55.0845 112.508 54.598 112.125 54.2464 111.62C53.8984 111.116 53.7102 110.502 53.6818 109.777H55.6261C55.6545 110.157 55.7717 110.473 55.9776 110.725C56.1836 110.978 56.4517 111.166 56.782 111.29C57.1158 111.414 57.4886 111.477 57.9006 111.477C58.3303 111.477 58.7067 111.413 59.0298 111.285C59.3565 111.153 59.6122 110.972 59.7969 110.741C59.9815 110.507 60.0756 110.234 60.0792 109.921C60.0756 109.637 59.9922 109.403 59.8288 109.218C59.6655 109.03 59.4364 108.874 59.1417 108.749C58.8505 108.621 58.5096 108.508 58.119 108.408L56.8778 108.089C55.9794 107.858 55.2692 107.508 54.7472 107.039C54.2287 106.567 53.9695 105.94 53.9695 105.159C53.9695 104.516 54.1435 103.953 54.4915 103.471C54.843 102.988 55.3207 102.613 55.9244 102.347C56.5281 102.077 57.2116 101.942 57.9751 101.942C58.7493 101.942 59.4276 102.077 60.0099 102.347C60.5959 102.613 61.0558 102.984 61.3896 103.46C61.7234 103.932 61.8956 104.475 61.9062 105.09H60.0046ZM67.7057 113.149C67.1837 113.146 66.6741 113.055 66.1769 112.877C65.6798 112.696 65.2323 112.403 64.8346 111.999C64.4369 111.59 64.1208 111.049 63.8865 110.374C63.6521 109.696 63.5367 108.856 63.5402 107.854C63.5402 106.92 63.6396 106.088 63.8385 105.356C64.0374 104.625 64.3232 104.007 64.6961 103.502C65.069 102.995 65.5182 102.608 66.0438 102.341C66.5729 102.075 67.1642 101.942 67.8176 101.942C68.5029 101.942 69.1102 102.077 69.6393 102.347C70.172 102.616 70.6017 102.986 70.9284 103.455C71.2551 103.92 71.4575 104.445 71.5356 105.031H69.5914C69.4919 104.612 69.2877 104.278 68.9788 104.03C68.6734 103.778 68.2863 103.652 67.8176 103.652C67.0612 103.652 66.4788 103.98 66.0704 104.637C65.6656 105.294 65.4614 106.196 65.4578 107.343H65.5324C65.7064 107.031 65.9319 106.762 66.2089 106.539C66.4859 106.315 66.7984 106.143 67.1464 106.022C67.498 105.898 67.8691 105.836 68.2597 105.836C68.8989 105.836 69.4724 105.988 69.9802 106.294C70.4916 106.599 70.8964 107.02 71.1947 107.556C71.493 108.089 71.6404 108.7 71.6368 109.388C71.6404 110.106 71.477 110.75 71.1468 111.322C70.8165 111.89 70.3566 112.338 69.7671 112.664C69.1776 112.991 68.4905 113.153 67.7057 113.149ZM67.695 111.551C68.0821 111.551 68.4284 111.457 68.7338 111.269C69.0392 111.081 69.2806 110.827 69.4582 110.507C69.6357 110.187 69.7227 109.829 69.7192 109.431C69.7227 109.04 69.6375 108.687 69.4635 108.371C69.2931 108.055 69.0569 107.805 68.7551 107.62C68.4532 107.435 68.1088 107.343 67.7217 107.343C67.434 107.343 67.1659 107.398 66.9173 107.508C66.6688 107.618 66.4521 107.771 66.2675 107.966C66.0828 108.158 65.9372 108.382 65.8307 108.637C65.7277 108.89 65.6744 109.159 65.6709 109.447C65.6744 109.827 65.7632 110.177 65.9372 110.496C66.1112 110.816 66.3509 111.072 66.6563 111.263C66.9617 111.455 67.308 111.551 67.695 111.551ZM77.4695 113.208C76.5924 113.208 75.8396 112.986 75.211 112.542C74.586 112.094 74.1048 111.45 73.7675 110.608C73.4337 109.763 73.2668 108.746 73.2668 107.556C73.2703 106.366 73.439 105.354 73.7728 104.52C74.1102 103.682 74.5914 103.043 75.2164 102.602C75.8449 102.162 76.596 101.942 77.4695 101.942C78.3431 101.942 79.0942 102.162 79.7227 102.602C80.3513 103.043 80.8325 103.682 81.1663 104.52C81.5036 105.358 81.6723 106.37 81.6723 107.556C81.6723 108.749 81.5036 109.768 81.1663 110.614C80.8325 111.455 80.3513 112.098 79.7227 112.542C79.0977 112.986 78.3467 113.208 77.4695 113.208ZM77.4695 111.54C78.1514 111.54 78.6894 111.205 79.0835 110.534C79.4813 109.859 79.6801 108.866 79.6801 107.556C79.6801 106.69 79.5896 105.962 79.4085 105.372C79.2274 104.783 78.9717 104.339 78.6414 104.04C78.3112 103.739 77.9205 103.588 77.4695 103.588C76.7913 103.588 76.2551 103.925 75.8609 104.6C75.4667 105.271 75.2678 106.256 75.2643 107.556C75.2607 108.426 75.3477 109.158 75.5253 109.751C75.7064 110.344 75.9621 110.791 76.2923 111.093C76.6226 111.391 77.015 111.54 77.4695 111.54ZM85.3025 111.509L85.2332 112.094C85.1835 112.542 85.0947 112.996 84.9669 113.458C84.8426 113.923 84.7112 114.351 84.5727 114.742C84.4342 115.132 84.3224 115.44 84.2371 115.663H82.9374C82.9871 115.447 83.0546 115.152 83.1398 114.779C83.2286 114.406 83.3138 113.987 83.3955 113.522C83.4772 113.057 83.5322 112.585 83.5606 112.105L83.5979 111.509H85.3025ZM91.0487 113.208C90.1715 113.208 89.4187 112.986 88.7901 112.542C88.1651 112.094 87.6839 111.45 87.3466 110.608C87.0128 109.763 86.8459 108.746 86.8459 107.556C86.8494 106.366 87.0181 105.354 87.3519 104.52C87.6893 103.682 88.1705 103.043 88.7955 102.602C89.424 102.162 90.1751 101.942 91.0487 101.942C91.9222 101.942 92.6733 102.162 93.3018 102.602C93.9304 103.043 94.4116 103.682 94.7454 104.52C95.0827 105.358 95.2514 106.37 95.2514 107.556C95.2514 108.749 95.0827 109.768 94.7454 110.614C94.4116 111.455 93.9304 112.098 93.3018 112.542C92.6768 112.986 91.9258 113.208 91.0487 113.208ZM91.0487 111.54C91.7305 111.54 92.2685 111.205 92.6626 110.534C93.0604 109.859 93.2592 108.866 93.2592 107.556C93.2592 106.69 93.1687 105.962 92.9876 105.372C92.8065 104.783 92.5508 104.339 92.2205 104.04C91.8903 103.739 91.4996 103.588 91.0487 103.588C90.3704 103.588 89.8342 103.925 89.44 104.6C89.0458 105.271 88.8469 106.256 88.8434 107.556C88.8398 108.426 88.9268 109.158 89.1044 109.751C89.2855 110.344 89.5412 110.791 89.8714 111.093C90.2017 111.391 90.5941 111.54 91.0487 111.54ZM101.054 113.208C100.176 113.208 99.4236 112.986 98.795 112.542C98.17 112.094 97.6888 111.45 97.3515 110.608C97.0177 109.763 96.8508 108.746 96.8508 107.556C96.8543 106.366 97.023 105.354 97.3568 104.52C97.6942 103.682 98.1753 103.043 98.8003 102.602C99.4289 102.162 100.18 101.942 101.054 101.942C101.927 101.942 102.678 102.162 103.307 102.602C103.935 103.043 104.416 103.682 104.75 104.52C105.088 105.358 105.256 106.37 105.256 107.556C105.256 108.749 105.088 109.768 104.75 110.614C104.416 111.455 103.935 112.098 103.307 112.542C102.682 112.986 101.931 113.208 101.054 113.208ZM101.054 111.54C101.735 111.54 102.273 111.205 102.668 110.534C103.065 109.859 103.264 108.866 103.264 107.556C103.264 106.69 103.174 105.962 102.992 105.372C102.811 104.783 102.556 104.339 102.225 104.04C101.895 103.739 101.505 103.588 101.054 103.588C100.375 103.588 99.839 103.925 99.4449 104.6C99.0507 105.271 98.8518 106.256 98.8483 107.556C98.8447 108.426 98.9317 109.158 99.1093 109.751C99.2904 110.344 99.5461 110.791 99.8763 111.093C100.207 111.391 100.599 111.54 101.054 111.54ZM111.058 113.208C110.181 113.208 109.428 112.986 108.8 112.542C108.175 112.094 107.694 111.45 107.356 110.608C107.023 109.763 106.856 108.746 106.856 107.556C106.859 106.366 107.028 105.354 107.362 104.52C107.699 103.682 108.18 103.043 108.805 102.602C109.434 102.162 110.185 101.942 111.058 101.942C111.932 101.942 112.683 102.162 113.312 102.602C113.94 103.043 114.421 103.682 114.755 104.52C115.093 105.358 115.261 106.37 115.261 107.556C115.261 108.749 115.093 109.768 114.755 110.614C114.421 111.455 113.94 112.098 113.312 112.542C112.687 112.986 111.936 113.208 111.058 113.208ZM111.058 111.54C111.74 111.54 112.278 111.205 112.672 110.534C113.07 109.859 113.269 108.866 113.269 107.556C113.269 106.69 113.178 105.962 112.997 105.372C112.816 104.783 112.561 104.339 112.23 104.04C111.9 103.739 111.509 103.588 111.058 103.588C110.38 103.588 109.844 103.925 109.45 104.6C109.056 105.271 108.857 106.256 108.853 107.556C108.85 108.426 108.937 109.158 109.114 109.751C109.295 110.344 109.551 110.791 109.881 111.093C110.211 111.391 110.604 111.54 111.058 111.54Z" fill="#464646"/>
<path d="M31.374 102.111L34.061 99.4073L47.496 112.926L44.809 115.629L31.374 102.111Z" fill="#626262"/>
<path d="M31.374 112.926L44.809 99.4073L47.496 102.111L34.061 115.629L31.374 112.926Z" fill="#626262"/>
<defs>
<filter id="filter0_d_40_113" x="0" y="0" width="240" height="160" filterUnits="userSpaceOnUse" color-interpolation-filters="sRGB">
<feFlood flood-opacity="0" result="BackgroundImageFix"/>
<feColorMatrix in="SourceAlpha" type="matrix" values="0 0 0 0 0 0 0 0 0 0 0 0 0 0 0 0 0 0 127 0" result="hardAlpha"/>
<feMorphology radius="3" operator="dilate" in="SourceAlpha" result="effect1_dropShadow_40_113"/>
<feOffset/>
<feGaussianBlur stdDeviation="2.5"/>
<feComposite in2="hardAlpha" operator="out"/>
<feColorMatrix type="matrix" values="0 0 0 0 0 0 0 0 0 0 0 0 0 0 0 0 0 0 0.2 0"/>
<feBlend mode="normal" in2="BackgroundImageFix" result="effect1_dropShadow_40_113"/>
<feBlend mode="normal" in="SourceGraphic" in2="effect1_dropShadow_40_113" result="shape"/>
</filter>
</defs>
</svg>
